<?xml version="1.0" encoding="UTF-8"?>
<svg width="200px" height="60px" viewBox="0 0 200 60" version="1.1" xmlns="http://www.w3.org/2000/svg" xmlns:xlink="http://www.w3.org/1999/xlink">
    <title>Baseet Logo</title>
    <g id="Logo" stroke="none" stroke-width="1" fill="none" fill-rule="evenodd">
        <g id="logo-text" fill="#333" fill-rule="nonzero">
            <path d="M35,8 C49.9117647,8 62,20.0882353 62,35 C62,49.9117647 49.9117647,62 35,62 C20.0882353,62 8,49.9117647 8,35 C8,20.0882353 20.0882353,8 35,8 Z M35,16 C24.5054545,16 16,24.5054545 16,35 C16,45.4945455 24.5054545,54 35,54 C45.4945455,54 54,45.4945455 54,35 C54,24.5054545 45.4945455,16 35,16 Z" id="circle"></path>
            <path d="M80,20 L80,50 L74,50 L74,20 L80,20 Z M92,25 C98.5,25 103,29.5 103,37 C103,44.5 98.5,49 92,49 C86.5,49 82,44.5 82,37 C82,29.5 86.5,25 92,25 Z M92,30 C89.5,30 88,32.5 88,37 C88,41.5 89.5,44 92,44 C94.5,44 96,41.5 96,37 C96,32.5 94.5,30 92,30 Z M115,25 C118.5,25 121,27 122,30 L122,25.5 L127,25.5 L127,49 L122,49 L122,44.5 C121,47.5 118.5,49.5 115,49.5 C109.5,49.5 105,45 105,37.5 C105,30 109.5,25 115,25 Z M116,30 C113.5,30 111,32 111,37 C111,42 113.5,44 116,44 C118.5,44 121,42 121,37 C121,32 118.5,30 116,30 Z M145,25 C149.5,25 153,28.5 153,33.5 L153,49 L147,49 L147,35 C147,31.5 145.5,30 143,30 C140.5,30 138.5,31.5 138.5,35.5 L138.5,49 L132.5,49 L132.5,25.5 L138.5,25.5 L138.5,28.5 C140,26 142.5,25 145,25 Z M167,25 C173.5,25 178,29.5 178,37 C178,44.5 173.5,49 167,49 C161.5,49 157,44.5 157,37 C157,29.5 161.5,25 167,25 Z M167,30 C164.5,30 163,32.5 163,37 C163,41.5 164.5,44 167,44 C169.5,44 171,41.5 171,37 C171,32.5 169.5,30 167,30 Z M188,25 C191.5,25 194,27 195,30 L195,25.5 L200,25.5 L200,49 L195,49 L195,44.5 C194,47.5 191.5,49.5 188,49.5 C182.5,49.5 178,45 178,37.5 C178,30 182.5,25 188,25 Z M189,30 C186.5,30 184,32 184,37 C184,42 186.5,44 189,44 C191.5,44 194,42 194,37 C194,32 191.5,30 189,30 Z" id="text"></path>
        </g>
    </g>
</svg>